<?xml version="1.0" encoding="iso-8859-1"?>
<svg fill='#ff0000' version="1.1" xmlns="http://www.w3.org/2000/svg" xmlns:xlink="http://www.w3.org/1999/xlink" x="0px" y="0px"
  viewBox="0 0 24 24" style="enable-background:new 0 0 612.816 612.816;" xml:space="preserve">
    <g>
        <path d="m11.9 2h.5l4 4c-.0575.0575-.0819.08194-.0923.11134-.0077.02173-.0077.04616-.0077.08866h-1.4c-.7 0-.9.2-.9.9v2.2c0 .5-.2.7-.7.7h-2.4c-.4 0-.6-.2-.6-.6v-2.4c0-.6-.2-.8-.80001-.8-.5 0-1 0-1.6-.1.35927-.47902.75439-.88634 1.14243-1.28635.26001-.26804.51684-.5328.75757-.81365.70001-.59999 1.40001-1.30001 2.10001-2z"></path>
        <path d="m6 16.1c-1.4-1.3-2.7-2.6-4-4v-.3c.63796-.6379 1.3-1.2759 1.97431-1.92565.69975-.67429 1.41274-1.36135 2.12569-2.0743v8.19995z"></path>
        <path d="m14.7 17.9c-.6 0-.8-.1-.8-.8v-2.4c0-.5-.2-.7-.7-.7h-2.3c-.5 0-.7.2-.7.7v2.4c0 .6-.20001.8-.80001.8h-1.6c.2.3.3.4.4.5l3.30001 3.3c.3.3.6.3 1 0l3.3-3.3c.05-.05.075-.1.1-.15s.05-.1.1-.15v-.2z"></path>
        <path d="m18.6 8.2999c1 1.1 2 2.1 3.1 3.2.4.4.4.6 0 1-1 1.1-2 2.1-3.1 3.2l-.4.4v-8.2z"></path>
    </g>
</svg>